<?xml version="1.0" encoding="utf-8"?>
<svg version="1.1" xmlns:xlink="http://www.w3.org/1999/xlink" width="20px" height="17px" xmlns="http://www.w3.org/2000/svg">
  <g transform="matrix(1 0 0 1 -317 -109 )">
    <path d="M 19.52861952861953 12.707070707070706  C 19.84287317620651 12.974186307519638  20 13.29854096520763  20 13.68013468013468  C 20 14.061728395061731  19.84287317620651 14.386083052749719  19.52861952861953 14.653198653198652  L 17.23905723905724 16.5993265993266  C 16.924803591470262 16.866442199775534  16.54320987654321 17  16.094276094276093 17  C 15.645342312008982 17  15.263748597081932 16.866442199775534  14.94949494949495 16.5993265993266  L 10 12.392255892255893  L 5.050505050505051 16.5993265993266  C 4.73625140291807 16.866442199775534  4.354657687991022 17  3.9057239057239057 17  C 3.4567901234567904 17  3.0751964085297425 16.866442199775534  2.7609427609427613 16.5993265993266  L 0.4713804713804714 14.653198653198652  C 0.1571268237934906 14.386083052749719  0 14.061728395061731  0 13.68013468013468  C 0 13.29854096520763  0.1571268237934906 12.974186307519638  0.4713804713804714 12.707070707070706  L 5.42087542087542 8.5  L 0.4713804713804714 4.292929292929292  C 0.1571268237934906 4.025813692480358  0 3.7014590347923684  0 3.31986531986532  C 0 2.9382716049382713  0.1571268237934906 2.613916947250278  0.4713804713804714 2.3468013468013473  L 2.7609427609427613 0.40067340067340074  C 3.0751964085297425 0.13355780022446628  3.4567901234567904 0  3.9057239057239057 0  C 4.354657687991022 0  4.73625140291807 0.13355780022446628  5.050505050505051 0.40067340067340074  L 10 4.607744107744108  L 14.94949494949495 0.40067340067340074  C 15.263748597081932 0.13355780022446628  15.645342312008982 0  16.094276094276093 0  C 16.54320987654321 0  16.924803591470262 0.13355780022446628  17.23905723905724 0.40067340067340074  L 19.52861952861953 2.3468013468013473  C 19.84287317620651 2.613916947250278  20 2.9382716049382713  20 3.31986531986532  C 20 3.7014590347923684  19.84287317620651 4.025813692480358  19.52861952861953 4.292929292929292  L 14.579124579124578 8.5  L 19.52861952861953 12.707070707070706  Z " fill-rule="nonzero" fill="#333333" stroke="none" transform="matrix(1 0 0 1 317 109 )" />
  </g>
</svg>