<?xml version="1.0" encoding="utf-8"?>
<svg version="1.1" xmlns:xlink="http://www.w3.org/1999/xlink" width="96px" height="92px" xmlns="http://www.w3.org/2000/svg">
  <g transform="matrix(1 0 0 1 -2441 -7 )">
    <path d="M 29.35714285714286 3.6450892857142843  C 35.28571428571429 1.2150297619047614  41.5 0  48 0  C 54.5 0  60.71428571428572 1.2150297619047614  66.64285714285714 3.6450892857142843  C 72.57142857142858 6.075148809523807  77.67857142857143 9.34375  81.96428571428572 13.450892857142852  C 86.25000000000001 17.558035714285715  89.6607142857143 22.452380952380945  92.19642857142857 28.13392857142857  C 94.73214285714286 33.81547619047618  96 39.77083333333333  96 46  C 96 52.194940476190474  94.74107142857143 58.133184523809526  92.22321428571428 63.81473214285714  C 89.70535714285714 69.49627976190477  86.30357142857143 74.390625  82.01785714285714 78.49776785714286  C 77.73214285714286 82.60491071428572  72.625 85.88206845238095  66.69642857142857 88.32924107142857  C 60.76785714285715 90.77641369047619  54.53571428571428 92  48 92  C 41.464285714285715 92  35.23214285714286 90.78497023809524  29.303571428571427 88.35491071428572  C 23.375 85.92485119047619  18.276785714285715 82.64769345238095  14.00892857142857 78.5234375  C 9.741071428571427 74.39918154761905  6.339285714285714 69.50483630952381  3.8035714285714284 63.840401785714285  C 1.2678571428571428 58.17596726190475  0 52.22916666666666  0 46  C 0 39.77083333333333  1.2678571428571428 33.81547619047618  3.8035714285714284 28.13392857142857  C 6.339285714285714 22.452380952380945  9.75 17.558035714285715  14.035714285714286 13.450892857142852  C 18.32142857142857 9.34375  23.42857142857143 6.075148809523807  29.35714285714286 3.6450892857142843  Z M 64.76785714285714 52.57142857142857  C 73.33928571428572 52.57142857142857  78.80357142857143 58.167410714285715  81.16071428571428 69.359375  C 86.48214285714286 62.343005952380956  89.14285714285714 54.55654761904761  89.14285714285714 46  C 89.14285714285714 40.660714285714285  88.05357142857143 35.5610119047619  85.875 30.700892857142854  C 83.69642857142858 25.840773809523807  80.76785714285717 21.648065476190467  77.08928571428572 18.122767857142854  C 73.41071428571429 14.597470238095239  69.03571428571429 11.790922619047613  63.96428571428572 9.703125  C 58.89285714285715 7.615327380952376  53.57142857142857 6.5714285714285685  48 6.5714285714285685  C 42.42857142857143 6.5714285714285685  37.10714285714286 7.615327380952376  32.035714285714285 9.703125  C 26.964285714285715 11.790922619047613  22.58928571428572 14.597470238095239  18.910714285714285 18.122767857142854  C 15.232142857142861 21.648065476190467  12.303571428571429 25.840773809523807  10.125 30.700892857142854  C 7.946428571428573 35.5610119047619  6.857142857142857 40.660714285714285  6.857142857142857 46  C 6.857142857142857 54.55654761904761  9.517857142857144 62.343005952380956  14.839285714285714 69.359375  C 17.19642857142857 58.167410714285715  22.660714285714285 52.57142857142857  31.23214285714286 52.57142857142857  C 35.91071428571429 56.952380952380956  41.5 59.14285714285714  48 59.14285714285714  C 54.5 59.14285714285714  60.089285714285715 56.952380952380956  64.76785714285714 52.57142857142857  Z M 62.544642857142854 50.081473214285715  C 66.5625 46.231026785714285  68.57142857142857 41.58482142857143  68.57142857142857 36.142857142857146  C 68.57142857142857 30.700892857142854  66.5625 26.0546875  62.544642857142854 22.20424107142857  C 58.52678571428572 18.353794642857146  53.67857142857143 16.42857142857143  48 16.42857142857143  C 42.32142857142857 16.42857142857143  37.473214285714285 18.353794642857146  33.45535714285714 22.20424107142857  C 29.4375 26.0546875  27.428571428571427 30.700892857142854  27.428571428571427 36.142857142857146  C 27.428571428571427 41.58482142857143  29.4375 46.231026785714285  33.45535714285714 50.081473214285715  C 37.473214285714285 53.93191964285714  42.32142857142857 55.85714285714286  48 55.85714285714286  C 53.67857142857143 55.85714285714286  58.52678571428572 53.93191964285714  62.544642857142854 50.081473214285715  Z " fill-rule="nonzero" fill="#555555" stroke="none" transform="matrix(1 0 0 1 2441 7 )" />
  </g>
</svg>