<?xml version="1.0" encoding="utf-8"?>
<svg version="1.1" xmlns:xlink="http://www.w3.org/1999/xlink" width="102px" height="80px" xmlns="http://www.w3.org/2000/svg">
  <g transform="matrix(1 0 0 1 -14 -13 )">
    <path d="M 87.33828996282529 45.705378020265  C 87.38042131350682 45.78851649779163  87.4014869888476 45.91322421408158  87 46.07950116913484  L 87 76.00935307872174  C 87.4014869888476 77.09015328656793  87.00123915737299 78.02546115874253  86.20074349442379 78.81527669524552  C 85.4002478314746 79.60509223174851  84.45229244114003 80  83.35687732342006 80  L 59 80  L 59 56  L 43 56  L 43 80  L 18.643122676579925 80  C 17.547707558859976 80  16.599752168525406 79.60509223174851  15.799256505576206 78.81527669524552  C 14.998760842627016 78.02546115874253  14.598513011152415 77.09015328656793  15 76.00935307872174  L 15 46.07950116913484  C 14.598513011152415 46.03793193037152  14.609045848822802 45.975578072226554  14.630111524163569 45.89243959469992  C 14.651177199504339 45.80930111717329  14.661710037174721 45.74694725902832  14.661710037174721 45.705378020265  L 51 16.149649259547935  L 87.33828996282529 45.705378020265  Z M 101.93680297397769 40.31176929072487  C 101.97893432465924 40.87295401402962  101.83147459727387 41.36139256949857  101.49442379182156 41.77708495713173  L 97.57620817843866 46.39127045985971  C 97.23915737298638 46.765393608729546  96.79677819083024 46.994024421927776  96.24907063197026 47.07716289945441  L 96.05947955390334 47.07716289945441  C 95.51177199504338 47.07716289945441  95.06939281288724 46.931670563782795  94.73234200743494 46.64068589243959  L 51 10.662509742790336  L 7.267657992565056 46.64068589243959  C 6.762081784386617 46.973239802546104  6.256505576208179 47.118732138217716  5.750929368029739 47.07716289945441  C 5.203221809169765 46.994024421927776  4.7608426270136315 46.765393608729546  4.4237918215613385 46.39127045985971  L 0.5055762081784386 41.77708495713173  C 0.1685254027261463 41.36139256949857  0.021065675340768426 40.87295401402962  0.06319702602230483 40.31176929072487  C 0.1053283767038417 39.75058456742011  0.3370508054522926 39.30371525071447  0.758364312267658 38.97116134060795  L 46.19702602230483 1.621200311769293  C 47.545229244114005 0.5404001039230888  49.146220570012396 0  51 0  C 52.85377942998762 0  54.454770755886 0.5404001039230888  55.80297397769517 1.621200311769293  L 71 14.341387373343721  L 71 2.1823850350740415  C 71.22304832713755 1.6004156923876245  71.41263940520446 1.1223694466095058  71.79182156133828 0.7482462977396764  C 72.17100371747212 0.3741231488698382  72.65551425030979 0.1870615744349191  73.2453531598513 1  L 85.37918215613384 1  C 85.96902106567535 0.1870615744349191  86.45353159851301 0.3741231488698382  86.83271375464683 0.7482462977396764  C 87.21189591078067 1.1223694466095058  87.4014869888476 1.6004156923876245  87 2.1823850350740415  L 87 27.622759158222916  L 101.24163568773234 38.97116134060795  C 101.66294919454772 39.30371525071447  101.89467162329618 39.75058456742011  101.93680297397769 40.31176929072487  Z " fill-rule="nonzero" fill="#555555" stroke="none" transform="matrix(1 0 0 1 14 13 )" />
  </g>
</svg>