<?xml version="1.0" encoding="utf-8"?>
<svg version="1.1" xmlns:xlink="http://www.w3.org/1999/xlink" width="39px" height="39px" xmlns="http://www.w3.org/2000/svg">
  <g transform="matrix(1 0 0 1 -1873 -5 )">
    <path d="M 11.926339285714286 1.5452008928571423  C 14.334821428571429 0.5150669642857141  16.859375 0  19.5 0  C 22.140625 0  24.665178571428577 0.5150669642857141  27.073660714285715 1.5452008928571423  C 29.48214285714286 2.5753348214285703  31.556919642857142 3.9609375  33.29799107142858 5.702008928571427  C 35.03906250000001 7.443080357142858  36.42466517857143 9.517857142857139  37.45479910714286 11.926339285714285  C 38.48493303571429 14.334821428571425  39 16.859375  39 19.5  C 39 22.126116071428573  38.48856026785714 24.643415178571427  37.46568080357142 27.05189732142857  C 36.442801339285715 29.46037946428572  35.06082589285714 31.53515625  33.319754464285715 33.27622767857143  C 31.578683035714285 35.01729910714286  29.503906250000004 36.40652901785714  27.095424107142858 37.443917410714285  C 24.686941964285715 38.48130580357143  22.155133928571427 39  19.5 39  C 16.84486607142857 39  14.313058035714288 38.484933035714285  11.904575892857142 37.45479910714286  C 9.49609375 36.42466517857143  7.424944196428572 35.03543526785714  5.691127232142857 33.287109375  C 3.957310267857143 31.538783482142858  2.5753348214285716 29.46400669642857  1.5452008928571428 27.062779017857142  C 0.5150669642857142 24.661551339285708  0 22.140624999999996  0 19.5  C 0 16.859375  0.5150669642857142 14.334821428571425  1.5452008928571428 11.926339285714285  C 2.5753348214285716 9.517857142857139  3.9609375 7.443080357142858  5.702008928571429 5.702008928571427  C 7.443080357142857 3.9609375  9.517857142857144 2.5753348214285703  11.926339285714286 1.5452008928571423  Z M 26.311941964285715 22.285714285714285  C 29.794084821428573 22.285714285714285  32.01395089285714 24.657924107142858  32.97154017857142 29.40234375  C 35.13337053571429 26.428013392857142  36.214285714285715 23.127232142857142  36.214285714285715 19.5  C 36.214285714285715 17.236607142857142  35.771763392857146 15.074776785714283  34.88671875 13.014508928571427  C 34.00167410714286 10.954241071428571  32.81194196428572 9.176897321428568  31.317522321428573 7.682477678571427  C 29.823102678571434 6.188058035714286  28.04575892857143 4.998325892857141  25.985491071428573 4.11328125  C 23.925223214285715 3.228236607142855  21.763392857142858 2.7857142857142847  19.5 2.7857142857142847  C 17.236607142857142 2.7857142857142847  15.074776785714288 3.228236607142855  13.014508928571429 4.11328125  C 10.954241071428573 4.998325892857141  9.176897321428573 6.188058035714286  7.682477678571429 7.682477678571427  C 6.188058035714287 9.176897321428568  4.998325892857143 10.954241071428571  4.11328125 13.014508928571427  C 3.2282366071428577 15.074776785714283  2.7857142857142856 17.236607142857142  2.7857142857142856 19.5  C 2.7857142857142856 23.127232142857142  3.8666294642857144 26.428013392857142  6.028459821428571 29.40234375  C 6.986049107142857 24.657924107142858  9.205915178571429 22.285714285714285  12.688058035714286 22.285714285714285  C 14.58872767857143 24.142857142857142  16.859375 25.07142857142857  19.5 25.07142857142857  C 22.140625 25.07142857142857  24.411272321428573 24.142857142857142  26.311941964285715 22.285714285714285  Z M 25.408761160714285 21.230189732142858  C 27.041015625 19.597935267857142  27.857142857142858 17.628348214285715  27.857142857142858 15.321428571428573  C 27.857142857142858 13.014508928571427  27.041015625 11.044921875  25.408761160714285 9.412667410714285  C 23.776506696428573 7.780412946428573  21.806919642857142 6.964285714285715  19.5 6.964285714285715  C 17.193080357142858 6.964285714285715  15.223493303571429 7.780412946428573  13.591238839285714 9.412667410714285  C 11.958984375 11.044921875  11.142857142857142 13.014508928571427  11.142857142857142 15.321428571428573  C 11.142857142857142 17.628348214285715  11.958984375 19.597935267857142  13.591238839285714 21.230189732142858  C 15.223493303571429 22.86244419642857  17.193080357142858 23.67857142857143  19.5 23.67857142857143  C 21.806919642857142 23.67857142857143  23.776506696428573 22.86244419642857  25.408761160714285 21.230189732142858  Z " fill-rule="nonzero" fill="#555555" stroke="none" transform="matrix(1 0 0 1 1873 5 )" />
  </g>
</svg>