<?xml version="1.0" encoding="utf-8"?>
<svg version="1.1" xmlns:xlink="http://www.w3.org/1999/xlink" width="38px" height="35px" xmlns="http://www.w3.org/2000/svg">
  <g transform="matrix(1 0 0 1 -10 -7 )">
    <path d="M 32.53779429987608 19.996102883865937  C 32.553490293267245 20.03247596778384  32.561338289962826 20.08703559366069  32 20.159781761496493  L 32 33.25409197194077  C 32.561338289962826 33.72694206287347  32.4122263527468 34.13613925694985  32.114002478314745 34.48168355416991  C 31.8157786038827 34.82722785138997  31.462618752581584 35  31.054522924411398 35  L 22 35  L 22 24.524551831644583  L 16 24.524551831644583  L 16 35  L 6.9454770755886 35  C 6.5373812474184225 35  6.184221396117308 34.82722785138997  5.885997521685254 34.48168355416991  C 5.587773647253202 34.13613925694985  5.438661710037175 33.72694206287347  6 33.25409197194077  L 6 20.159781761496493  C 5.438661710037175 20.14159521953754  5.442585708384965 20.114315406599115  5.450433705080545 20.077942322681217  C 5.4582817017761265 20.041569238763316  5.462205700123916 20.01428942582489  5.462205700123916 19.996102883865937  L 19 7.065471551052221  L 32.53779429987608 19.996102883865937  Z M 37.97645600991326 17.636399064692128  C 37.99215200330442 17.881917381137956  37.93721602643536 18.095609249155626  37.81164807930607 18.277474668745132  L 36.35192069392813 20.29618082618862  C 36.226352746798845 20.459859703819177  36.061544816191656 20.559885684593404  35.85749690210657 20.5962587685113  L 35.786864931846345 20.5962587685113  C 35.58281701776126 20.5962587685113  35.418009087154076 20.532605871654972  35.292441140024785 20.40530007794232  L 19 4.664848012470772  L 2.707558859975217 20.40530007794232  C 2.519206939281289 20.550792413613923  2.3308550185873607 20.614445310470252  2.1425030978934325 20.5962587685113  C 1.938455183808344 20.559885684593404  1.7736472532011567 20.459859703819177  1.648079306071871 20.29618082618862  L 0.18835192069392814 18.277474668745132  C 0.06278397356464274 18.095609249155626  0.007847996695580395 17.881917381137956  0.023543990086741018 17.636399064692128  C 0.03923998347790181 17.3908807482463  0.12556794712928548 17.19537542218758  0.28252788104089216 17.049883086515976  L 17.210656753407683 0.7092751363990657  C 17.712928541924825 0.23642504546635135  18.309376290788933 0  19 0  C 19.690623709211074 0  20.28707145807518 0.23642504546635135  20.789343246592317 0.7092751363990657  L 26.534076827757126 6.274356975837878  L 26.534076827757126 0.9547934528448931  C 26.534076827757126 0.7001818654195857  26.604708798017345 0.4910366328916588  26.745972738537795 0.32735775526110844  C 26.88723667905824 0.16367887763055422  27.06774060305659 0.08183943881527711  27.28748451053284 0.08183943881527711  L 31.807930607187114 0.08183943881527711  C 32.02767451466337 0.08183943881527711  32.20817843866171 0.16367887763055422  32.34944237918216 0.32735775526110844  C 32.4907063197026 0.4910366328916588  32.561338289962826 0.7001818654195857  32 0.9547934528448931  L 32 12.084957131722526  L 37.71747211895911 17.049883086515976  C 37.874432052870716 17.19537542218758  37.9607600165221 17.3908807482463  37.97645600991326 17.636399064692128  Z " fill-rule="nonzero" fill="#555555" stroke="none" transform="matrix(1 0 0 1 10 7 )" />
  </g>
</svg>