<?xml version="1.0" encoding="utf-8"?>
<svg version="1.1" xmlns:xlink="http://www.w3.org/1999/xlink" width="20px" height="25px" xmlns="http://www.w3.org/2000/svg">
  <g transform="matrix(1 0 0 1 -19 -60 )">
    <path d="M 5.555555555555555 7.954545454545456  L 5.555555555555555 11.363636363636365  L 14.444444444444445 11.363636363636365  L 14.444444444444445 7.954545454545456  C 14.444444444444445 6.699810606060605  14.010416666666668 5.628551136363635  13.14236111111111 4.740767045454544  C 12.274305555555555 3.852982954545456  11.226851851851853 3.4090909090909087  10 3.4090909090909087  C 8.773148148148149 3.4090909090909087  7.725694444444445 3.852982954545456  6.857638888888888 4.740767045454544  C 5.989583333333334 5.628551136363635  5.555555555555555 6.699810606060605  5.555555555555555 7.954545454545456  Z M 19.51388888888889 11.860795454545455  C 19.837962962962965 12.192234848484848  20 12.594696969696967  20 13.068181818181818  L 20 23.295454545454547  C 20 23.768939393939394  19.837962962962965 24.171401515151516  19.51388888888889 24.50284090909091  C 19.189814814814817 24.834280303030305  18.796296296296298 25  18.333333333333332 25  L 1.6666666666666665 25  C 1.203703703703704 25  0.8101851851851853 24.834280303030305  0.4861111111111111 24.50284090909091  C 0.16203703703703703 24.171401515151516  0 23.768939393939394  0 23.295454545454547  L 0 13.068181818181818  C 0 12.594696969696967  0.16203703703703703 12.192234848484848  0.4861111111111111 11.860795454545455  C 0.8101851851851853 11.52935606060606  1.203703703703704 11.363636363636365  1.6666666666666665 11.363636363636365  L 2.2222222222222223 11.363636363636365  L 2.2222222222222223 7.954545454545456  C 2.2222222222222223 5.776515151515149  2.986111111111111 3.90625  4.513888888888889 2.34375  C 6.041666666666666 0.78125  7.870370370370371 0  10 0  C 12.12962962962963 0  13.958333333333332 0.78125  15.48611111111111 2.34375  C 17.01388888888889 3.90625  17.77777777777778 5.776515151515149  17.77777777777778 7.954545454545456  L 17.77777777777778 11.363636363636365  L 18.333333333333332 11.363636363636365  C 18.796296296296298 11.363636363636365  19.189814814814817 11.52935606060606  19.51388888888889 11.860795454545455  Z " fill-rule="nonzero" fill="#555555" stroke="none" fill-opacity="0.8431372549019608" transform="matrix(1 0 0 1 19 60 )" />
  </g>
</svg>