<?xml version="1.0" encoding="utf-8"?>
<svg version="1.1" xmlns:xlink="http://www.w3.org/1999/xlink" width="7px" height="4px" xmlns="http://www.w3.org/2000/svg">
  <g transform="matrix(1 0 0 1 -1432 -37 )">
    <path d="M 6.8701171875 0.13194444444444464  C 6.956705729166667 0.219907407407407  7 0.32407407407407307  7 0.44444444444444464  C 7 0.5648148148148144  6.956705729166667 0.668981481481481  6.8701171875 0.7569444444444446  L 3.8076171875 3.8680555555555554  C 3.7210286458333335 3.956018518518519  3.6184895833333335 4  3.5 4  C 3.381510416666667 4  3.278971354166667 3.956018518518519  3.1923828125 3.8680555555555554  L 0.1298828125 0.7569444444444446  C 0.04329427083333333 0.668981481481481  0 0.5648148148148144  0 0.44444444444444464  C 0 0.32407407407407307  0.04329427083333333 0.219907407407407  0.1298828125 0.13194444444444464  C 0.21647135416666669 0.043981481481480955  0.3190104166666667 0  0.4375 0  L 6.5625 0  C 6.680989583333334 0  6.783528645833334 0.043981481481480955  6.8701171875 0.13194444444444464  Z " fill-rule="nonzero" fill="#169bd5" stroke="none" transform="matrix(1 0 0 1 1432 37 )" />
  </g>
</svg>