<?xml version="1.0" encoding="utf-8"?>
<svg version="1.1" xmlns:xlink="http://www.w3.org/1999/xlink" width="7px" height="4px" xmlns="http://www.w3.org/2000/svg">
  <g transform="matrix(1 0 0 1 -1432 -32 )">
    <path d="M 6.8701171875 3.2430555555555554  C 6.956705729166667 3.3310185185185173  7 3.4351851851851842  7 3.5555555555555554  C 7 3.6759259259259256  6.956705729166667 3.780092592592592  6.8701171875 3.8680555555555554  C 6.783528645833334 3.956018518518519  6.680989583333334 4  6.5625 4  L 0.4375 4  C 0.3190104166666667 4  0.21647135416666669 3.956018518518519  0.1298828125 3.8680555555555554  C 0.04329427083333333 3.780092592592592  0 3.6759259259259256  0 3.5555555555555554  C 0 3.4351851851851842  0.04329427083333333 3.3310185185185173  0.1298828125 3.2430555555555554  L 3.1923828125 0.13194444444444464  C 3.278971354166667 0.043981481481480955  3.381510416666667 0  3.5 0  C 3.6184895833333335 0  3.7210286458333335 0.043981481481480955  3.8076171875 0.13194444444444464  L 6.8701171875 3.2430555555555554  Z " fill-rule="nonzero" fill="#e6e6e6" stroke="none" transform="matrix(1 0 0 1 1432 32 )" />
  </g>
</svg>