<?xml version="1.0" encoding="utf-8"?>
<svg version="1.1" xmlns:xlink="http://www.w3.org/1999/xlink" width="51px" height="39px" xmlns="http://www.w3.org/2000/svg">
  <g transform="matrix(1 0 0 1 -9 -9 )">
    <path d="M 43.66914498141264 22.281371784879187  C 43.69021065675341 22.32190179267342  43.7007434944238 22.38269680436477  43 22.463756819953236  L 43 37.05455962587685  C 43.7007434944238 37.581449727201864  43.500619578686496 38.037412314886986  43.100371747211895 38.42244738893219  C 42.7001239157373 38.8074824629774  42.226146220570016 39  41.67843866171003 39  L 29 39  L 29 27.327357755261108  L 22 27.327357755261108  L 22 39  L 9.321561338289962 39  C 8.773853779429988 39  8.299876084262703 38.8074824629774  7.899628252788103 38.42244738893219  C 7.499380421313508 38.037412314886986  7.299256505576207 37.581449727201864  8 37.05455962587685  L 8 22.463756819953236  C 7.299256505576207 22.443491816056117  7.304522924411401 22.413094310210443  7.315055762081784 22.37256430241621  C 7.3255885997521695 22.33203429462198  7.330855018587361 22.301636788776307  7.330855018587361 22.281371784879187  L 25.5 7.8729540140296175  L 43.66914498141264 22.281371784879187  Z M 50.968401486988846 19.65198752922837  C 50.98946716232962 19.925565081839437  50.915737298636934 20.163678877630552  50.74721189591078 20.366328916601717  L 48.78810408921933 22.615744349181607  C 48.61957868649319 22.798129384255652  48.39838909541512 22.909586905689793  48.12453531598513 22.950116913484024  L 48.02973977695167 22.950116913484024  C 47.75588599752169 22.950116913484024  47.53469640644362 22.879189399844112  47.36617100371747 22.7373343725643  L 25.5 5.197973499610288  L 3.633828996282528 22.7373343725643  C 3.3810408921933086 22.899454403741228  3.1282527881040894 22.970381917381136  2.8754646840148697 22.950116913484024  C 2.6016109045848825 22.909586905689793  2.3804213135068157 22.798129384255652  2.2118959107806693 22.615744349181607  L 0.2527881040892193 20.366328916601717  C 0.08426270136307315 20.163678877630552  0.010532837670384213 19.925565081839437  0.031598513011152414 19.65198752922837  C 0.05266418835192085 19.378409976617306  0.1685254027261463 19.160561184723303  0.379182156133829 18.998441153546374  L 23.098513011152416 0.7903351519875303  C 23.772614622057002 0.2634450506625058  24.573110285006198 0  25.5 0  C 26.42688971499381 0  27.227385377943 0.2634450506625058  27.901486988847584 0.7903351519875303  L 35.611524163568774 6.991426344505064  L 35.611524163568774 1.0639127045985952  C 35.611524163568774 0.7802026500389669  35.70631970260223 0.5471551052221341  35.89591078066914 0.36477007014809226  C 36.08550185873606 0.18238503507404613  36.327757125154896 0.09119251753702307  36.62267657992565 0.09119251753702307  L 42.68959107806692 0.09119251753702307  C 42.984510532837675 0.09119251753702307  43.226765799256505 0.18238503507404613  43.416356877323416 0.36477007014809226  C 43.605947955390334 0.5471551052221341  43.7007434944238 0.7802026500389669  43 1.0639127045985952  L 43 13.466095089633672  L 50.62081784386617 18.998441153546374  C 50.83147459727386 19.160561184723303  50.94733581164809 19.378409976617306  50.968401486988846 19.65198752922837  Z " fill-rule="nonzero" fill="#797979" stroke="none" transform="matrix(1 0 0 1 9 9 )" />
  </g>
</svg>