<?xml version="1.0" encoding="utf-8"?>
<svg version="1.1" xmlns:xlink="http://www.w3.org/1999/xlink" width="81px" height="59px" xmlns="http://www.w3.org/2000/svg">
  <g transform="matrix(1 0 0 1 -752 -195 )">
    <path d="M 40.14404296875 34.013346354166664  C 40.38134765625 35.38335503472222  40.5 36.88780381944444  40.5 38.526692708333336  C 40.5 40.16558159722222  40.01220703125 41.52918836805554  39.03662109375 42.617513020833336  C 38.06103515625 43.70583767361111  36.861328125 44.25  35.4375 44  L 15.1875 44  C 13.763671875 44.25  12.56396484375 43.70583767361111  11.58837890625 42.617513020833336  C 10.612792968750002 41.52918836805554  10.125 40.16558159722222  10.125 38.526692708333336  C 10.125 36.88780381944444  10.24365234375 35.38335503472222  10.48095703125 34.013346354166664  C 10.71826171875 32.64333767361111  11.107177734375002 31.32454427083334  11.647705078125 30.05696614583334  C 12.188232421875 28.789388020833332  12.985839843750002 27.790690104166668  14.04052734375 27.060872395833332  C 15.09521484375 26.3310546875  16.3740234375 25.966145833333332  17.876953125 25.966145833333332  C 18.03515625 26.06857638888889  18.4306640625 26.29904513888889  19.0634765625 26.657552083333332  C 19.6962890625 27.01605902777777  20.190673828125 27.291341145833332  20.546630859375 27.4833984375  C 20.902587890625 27.675455729166668  21.37060546875 27.899522569444443  21.95068359375 28.155598958333332  C 22.530761718750004 28.41167534722222  23.09765625 28.597330729166668  23.6513671875 28.712565104166668  C 24.205078125 28.827799479166668  24.7587890625 28.885416666666668  25.3125 28.885416666666668  C 25.8662109375 28.885416666666668  26.419921875 28.827799479166668  26.9736328125 28.712565104166668  C 27.52734375 28.597330729166668  28.09423828125 28.41167534722222  28.67431640625 28.155598958333332  C 29.254394531250004 27.899522569444443  29.722412109375 27.675455729166668  30.078369140625 27.4833984375  C 30.434326171875004 27.291341145833332  30.928710937500004 27.01605902777777  31.5615234375 26.657552083333332  C 32.19433593750001 26.29904513888889  32.58984375000001 26.06857638888889  32.748046875 25.966145833333332  C 34.25097656250001 25.966145833333332  35.52978515625001 26.3310546875  36.58447265625 27.060872395833332  C 37.63916015625 27.790690104166668  38.436767578125 28.789388020833332  38.977294921875 30.05696614583334  C 39.517822265625 31.32454427083334  39.90673828125 32.64333767361111  40.14404296875 34.013346354166664  Z M 31.660400390625 12.3876953125  C 33.41381835937501 14.09060329861111  34.29052734375001 16.145616319444443  34.29052734375 18.552734375  C 34.29052734375001 20.959852430555554  33.41381835937501 23.014865451388882  31.660400390625 24.7177734375  C 29.906982421875004 26.42068142361111  27.791015625000004 27.272135416666668  25.3125 27.272135416666668  C 22.833984375 27.272135416666668  20.718017578125 26.42068142361111  18.964599609375 24.7177734375  C 17.211181640625 23.014865451388882  16.33447265625 20.959852430555554  16.33447265625 18.552734375  C 16.33447265625 16.145616319444443  17.211181640625 14.09060329861111  18.964599609375 12.3876953125  C 20.718017578125 10.684787326388882  22.833984375 9.83333333333333  25.3125 9.83333333333333  C 27.791015625000004 9.83333333333333  29.906982421875004 10.684787326388882  31.660400390625 12.3876953125  Z M 70.51904296875 34.762369791666664  C 70.75634765625 34.992838541666664  70.875 35.287326388888886  70.875 35.645833333333336  L 70.875 38.104166666666664  C 70.875 38.46267361111111  70.75634765625 38.757161458333336  70.51904296875 38.987630208333336  C 70.28173828125 39.218098958333336  69.978515625 39.333333333333336  69.609375 39  L 46.828125 39  C 46.458984375 39.333333333333336  46.15576171875 39.218098958333336  45.91845703125 38.987630208333336  C 45.68115234375 38.757161458333336  45.5625 38.46267361111111  45.5625 38.104166666666664  L 45.5625 35.645833333333336  C 45.5625 35.287326388888886  45.68115234375 34.992838541666664  45.91845703125 34.762369791666664  C 46.15576171875 34.531901041666664  46.458984375 34.416666666666664  46.828125 34  L 69.609375 34  C 69.978515625 34.416666666666664  70.28173828125 34.531901041666664  70.51904296875 34.762369791666664  Z M 70.459716796875 24.986653645833332  C 70.736572265625 25.255533854166668  70.875 25.58203125  70.875 25.966145833333332  L 70.875 28.1171875  C 70.875 28.501302083333332  70.736572265625 28.827799479166668  70.459716796875 29.0966796875  C 70.182861328125 29.365559895833332  69.8466796875 29.5  69.451171875 29  L 46.986328125 29  C 46.5908203125 29.5  46.254638671875 29.365559895833332  45.977783203125 29.0966796875  C 45.700927734375 28.827799479166668  45.5625 28.501302083333332  45.5625 28.1171875  L 45.5625 25.966145833333332  C 45.5625 25.58203125  45.700927734375 25.255533854166668  45.977783203125 24.986653645833332  C 46.254638671875 24.7177734375  46.5908203125 24.583333333333332  46.986328125 25  L 69.451171875 25  C 69.8466796875 24.583333333333332  70.182861328125 24.7177734375  70.459716796875 24.986653645833332  Z M 70.51904296875 15.095703125  C 70.75634765625 15.326171875  70.875 15.620659722222214  70.875 15.97916666666667  L 70.875 18.4375  C 70.875 18.796006944444443  70.75634765625 19.090494791666668  70.51904296875 19.320963541666668  C 70.28173828125 19.551432291666668  69.978515625 19.666666666666668  69.609375 20  L 46.828125 20  C 46.458984375 19.666666666666668  46.15576171875 19.551432291666668  45.91845703125 19.320963541666668  C 45.68115234375 19.090494791666668  45.5625 18.796006944444443  45.5625 18.4375  L 45.5625 15.97916666666667  C 45.5625 15.620659722222214  45.68115234375 15.326171875  45.91845703125 15.095703125  C 46.15576171875 14.865234375  46.458984375 14.75  46.828125 15  L 69.609375 15  C 69.978515625 14.75  70.28173828125 14.865234375  70.51904296875 15.095703125  Z M 75.561767578125 53.71842447916667  C 75.812255859375 53.47515190972223  75.93750000000001 53.18706597222223  76 52.85416666666667  L 76 6.145833333333331  C 75.93750000000001 5.812934027777772  75.812255859375 5.524848090277772  75.561767578125 5.281575520833331  C 75.311279296875 5.038302951388883  75.0146484375 4.916666666666669  74.671875 5  L 6.328125 5  C 5.9853515625 4.916666666666669  5.688720703125 5.038302951388883  5.438232421875 5.281575520833331  C 5.187744140625001 5.524848090277772  5.0625 5.812934027777772  5 6.145833333333331  L 5 52.85416666666667  C 5.0625 53.18706597222223  5.187744140625001 53.47515190972223  5.438232421875 53.71842447916667  C 5.688720703125 53.96169704861111  5.9853515625 54.08333333333333  6.328125 54  L 20.25 54  L 20.25 50.39583333333333  C 20.25 50.03732638888889  20.36865234375 49.74283854166667  20.60595703125 49.51236979166667  C 20.84326171875 49.28190104166667  21.146484375000004 49.16666666666667  21.515625 49.16666666666667  L 24.046875 49.16666666666667  C 24.416015625 49.16666666666667  24.71923828125 49.28190104166667  24.95654296875 49.51236979166667  C 25.19384765625 49.74283854166667  25.3125 50.03732638888889  25.3125 50.39583333333333  L 25.3125 54  L 55.6875 54  L 55.6875 50.39583333333333  C 55.6875 50.03732638888889  55.80615234375 49.74283854166667  56.04345703125 49.51236979166667  C 56.28076171875 49.28190104166667  56.583984375 49.16666666666667  56.953125 49.16666666666667  L 59.484375 49.16666666666667  C 59.85351562500001 49.16666666666667  60.15673828125 49.28190104166667  60.39404296875 49.51236979166667  C 60.63134765625 49.74283854166667  60.75 50.03732638888889  60.75 50.39583333333333  L 60.75 54  L 74.671875 54  C 75.0146484375 54.08333333333333  75.311279296875 53.96169704861111  75.561767578125 53.71842447916667  Z M 79.14111328125 1.8053385416666687  C 80.38037109375 3.0088975694444415  81 4.455729166666669  81 6.145833333333331  L 81 52.85416666666667  C 81 54.54427083333333  80.38037109375 55.99110243055556  79.14111328125 57.19466145833333  C 77.90185546875 58.39822048611111  76.412109375 59  74.671875 59  L 6.328125 59  C 4.587890625 59  3.0981445312500004 58.39822048611111  1.85888671875 57.19466145833333  C 0.61962890625 55.99110243055556  0 54.54427083333333  0 52.85416666666667  L 0 6.145833333333331  C 0 4.455729166666669  0.61962890625 3.0088975694444415  1.85888671875 1.8053385416666687  C 3.0981445312500004 0.6017795138888831  4.587890625 0  6.328125 0  L 74.671875 0  C 76.412109375 0  77.90185546875 0.6017795138888831  79.14111328125 1.8053385416666687  Z " fill-rule="nonzero" fill="#63a103" stroke="none" transform="matrix(1 0 0 1 752 195 )" />
  </g>
</svg>