<?xml version="1.0" encoding="utf-8"?>
<svg version="1.1" xmlns:xlink="http://www.w3.org/1999/xlink" width="50px" height="57px" xmlns="http://www.w3.org/2000/svg">
  <g transform="matrix(1 0 0 1 -725 -198 )">
    <path d="M 49.66796875 41.20996093749999  C 49.889322916666664 43.077799479166664  50 45.063151041666664  50 47.166015625  C 50 49.862630208333336  49.18619791666667 52.17578125  47.55859375 54.10546875  C 45.930989583333336 56.03515625  43.97135416666667 57  41.6796875 57  L 8.3203125 57  C 6.028645833333333 57  4.069010416666667 56.03515625  2.4414062500000004 54.10546875  C 0.8138020833333336 52.17578125  0 49.862630208333336  0 47.166015625  C 0 45.063151041666664  0.11067708333333359 43.077799479166664  0.3320312500000003 41.20996093749999  C 0.553385416666667 39.34212239583332  0.9635416666666669 37.4619140625  1.5625000000000004 35.5693359375  C 2.161458333333334 33.6767578125  2.923177083333334 32.05631510416667  3.84765625 30.708007812500004  C 4.772135416666668 29.35970052083333  5.99609375 28.258789062499996  7.51953125 27.405273437500004  C 9.04296875 26.5517578125  10.794270833333334 26.125000000000004  12.773437500000002 26.125000000000004  C 16.184895833333336 29.291666666666664  20.26041666666667 30.875000000000004  25 30.875000000000004  C 29.739583333333343 30.875000000000004  33.81510416666667 29.291666666666664  37.2265625 26.125000000000004  C 39.20572916666667 26.125000000000004  40.95703125 26.5517578125  42.48046875 27.405273437500004  C 44.00390625 28.258789062499996  45.227864583333336 29.35970052083333  46.15234375 30.708007812500004  C 47.07682291666667 32.05631510416667  47.838541666666664 33.6767578125  48.4375 35.5693359375  C 49.036458333333336 37.4619140625  49.446614583333336 39.34212239583332  49.66796875 41.20996093749999  Z M 35.60546875 4.1748046875  C 38.53515625 6.9580078125  40 10.316406250000002  40 14.25  C 40 18.183593749999996  38.53515625 21.5419921875  35.60546875 24.3251953125  C 32.67578125 27.1083984375  29.140624999999996 28.5  25 28.5  C 20.859375 28.5  17.32421875 27.1083984375  14.39453125 24.3251953125  C 11.46484375 21.5419921875  10 18.183593749999996  10 14.25  C 10 10.316406250000002  11.46484375 6.9580078125  14.39453125 4.1748046875  C 17.32421875 1.3916015625  20.859375 0  25 0  C 29.140624999999996 0  32.67578125 1.3916015625  35.60546875 4.1748046875  Z " fill-rule="nonzero" fill="#63a103" stroke="none" transform="matrix(1 0 0 1 725 198 )" />
  </g>
</svg>