<?xml version="1.0" encoding="utf-8"?>
<svg version="1.1" xmlns:xlink="http://www.w3.org/1999/xlink" width="21px" height="23px" xmlns="http://www.w3.org/2000/svg">
  <g transform="matrix(1 0 0 1 -680 -705 )">
    <path d="M 12.803185096153845 8.977463942307693  C 12.88311298076923 9.065004006410255  12.923076923076923 9.16866987179487  12.923076923076923 9.288461538461538  L 12.923076923076923 10.173076923076923  C 12.923076923076923 10.29286858974359  12.88311298076923 10.396534455128204  12.803185096153845 10.484074519230768  C 12.723257211538463 10.571614583333332  12.62860576923077 10.615384615384617  12.519230769230768 10.615384615384617  L 5.25 10.615384615384617  C 5.140625 10.615384615384617  5.045973557692308 10.571614583333332  4.966045673076923 10.484074519230768  C 4.886117788461537 10.396534455128204  4.846153846153847 10.29286858974359  4.846153846153847 10.173076923076923  L 4.846153846153847 9.288461538461538  C 4.846153846153847 9.16866987179487  4.886117788461537 9.065004006410255  4.966045673076923 8.977463942307693  C 5.045973557692308 8.88992387820513  5.140625 8.846153846153845  5.25 8.846153846153845  L 12.519230769230768 8.846153846153845  C 12.62860576923077 8.846153846153845  12.723257211538463 8.88992387820513  12.803185096153845 8.977463942307693  Z M 12.87890625 14.10546875  C 13.985276442307693 12.893729967948717  14.538461538461538 11.435496794871794  14.538461538461538 9.730769230769232  C 14.538461538461538 8.026041666666664  13.985276442307693 6.567808493589743  12.87890625 5.356069711538462  C 11.772536057692308 4.144330929487178  10.44110576923077 3.5384615384615388  8.884615384615385 3.5384615384615388  C 7.328125000000001 3.5384615384615388  5.996694711538463 4.144330929487178  4.890324519230769 5.356069711538462  C 3.783954326923077 6.567808493589743  3.230769230769231 8.026041666666664  3.230769230769231 9.730769230769232  C 3.230769230769231 11.435496794871794  3.783954326923077 12.893729967948717  4.890324519230769 14.10546875  C 5.996694711538463 15.317207532051277  7.328125000000001 15.923076923076923  8.884615384615385 15.923076923076923  C 10.44110576923077 15.923076923076923  11.772536057692308 15.317207532051277  12.87890625 14.10546875  Z M 20.533052884615387 19.986778846153847  C 20.844350961538463 20.32772435897436  21 20.74238782051282  21 21.230769230769234  C 21 21.71915064102564  20.842247596153847 22.13611778846154  20.526742788461537 22.481670673076923  C 20.21123798076923 22.827223557692307  19.83052884615385 23  19.384615384615387 23  C 18.930288461538463 23  18.551682692307693 22.824919871794872  18.248798076923077 22.474759615384617  L 13.920072115384615 17.747596153846153  C 12.4140625 18.89022435897436  10.735576923076925 19.46153846153846  8.884615384615385 19.46153846153846  C 7.681490384615385 19.46153846153846  6.530949519230769 19.205829326923077  5.432992788461538 18.69441105769231  C 4.3350360576923075 18.18299278846154  3.3885216346153846 17.491887019230766  2.593449519230769 16.62109375  C 1.798377403846154 15.750300480769232  1.1673677884615388 14.713641826923077  0.700420673076923 13.511117788461538  C 0.2334735576923077 12.30859375  0 11.048477564102562  0 9.730769230769232  C 0 8.413060897435894  0.2334735576923077 7.152944711538462  0.700420673076923 5.9504206730769225  C 1.1673677884615388 4.747896634615384  1.798377403846154 3.7112379807692317  2.593449519230769 2.8404447115384612  C 3.3885216346153846 1.9696514423076934  4.3350360576923075 1.2785456730769227  5.432992788461538 0.7671274038461546  C 6.530949519230769 0.255709134615384  7.681490384615385 0  8.884615384615385 0  C 10.087740384615385 0  11.23828125 0.255709134615384  12.336237980769232 0.7671274038461546  C 13.434194711538462 1.2785456730769227  14.380709134615385 1.9696514423076934  15.17578125 2.8404447115384612  C 15.970853365384615 3.7112379807692317  16.60186298076923 4.747896634615384  17.068810096153847 5.9504206730769225  C 17.535757211538463 7.152944711538462  17.76923076923077 8.413060897435894  17.76923076923077 9.730769230769232  C 17.76923076923077 11.75801282051282  17.247596153846157 13.596354166666664  16.204326923076923 15.245793269230768  L 20.533052884615387 19.986778846153847  Z " fill-rule="nonzero" fill="#000000" stroke="none" transform="matrix(1 0 0 1 680 705 )" />
  </g>
</svg>