<?xml version="1.0" encoding="utf-8"?>
<svg version="1.1" xmlns:xlink="http://www.w3.org/1999/xlink" width="32px" height="28px" xmlns="http://www.w3.org/2000/svg">
  <g transform="matrix(1 0 0 1 -153 -76 )">
    <path d="M 27.400247831474598 15.99688230709275  C 27.413465510119785 16.025980774227072  27.42007434944238 16.069628474928553  27 16.127825409197193  L 27 26.60327357755261  C 27.42007434944238 26.98155365029878  27.294506402313097 27.308911405559886  27.043370508054522 27.58534684333593  C 26.792234613795955 27.861782281111978  26.494836844279227 28  26.151177199504335 28  L 18.537794299876083 28  L 18.537794299876083 19.619641465315667  L 13.462205700123915 19.619641465315667  L 13.462205700123915 28  L 5.848822800495663 28  C 5.505163155720777 28  5.2077653862040485 27.861782281111978  4.956629491945477 27.58534684333593  C 4.705493597686907 27.308911405559886  4.5799256505576205 26.98155365029878  5 26.60327357755261  L 5 16.127825409197193  C 4.5799256505576205 16.113276175630034  4.583230070218918 16.091452325279292  4.589838909541512 16.062353858144974  C 4.596447748864106 16.033255391010652  4.599752168525403 16.011431540659913  4.599752168525403 15.99688230709275  L 16 5.652377240841776  L 27.400247831474598 15.99688230709275  Z M 31.980173482032217 14.109119251753704  C 31.993391160677408 14.305533904910366  31.94712928541925 14.4764873993245  31.841387856257743 14.621979734996104  L 30.612143742255267 16.236944660950897  C 30.506402313093766 16.367887763055343  30.36761668731929 16.44790854767472  30.195786864931847 16.477007014809043  L 30.1363073110285 16.477007014809043  C 29.96447748864106 16.477007014809043  29.825691862866588 16.42608469732398  29.71995043370508 16.324240062353855  L 16 3.7318784099766176  L 2.2800495662949194 16.324240062353855  C 2.121437422552664 16.44063393089114  1.962825278810409 16.4915562483762  1.8042131350681536 16.477007014809043  C 1.6323833126807106 16.44790854767472  1.4935976869062373 16.367887763055343  1.3878562577447335 16.236944660950897  L 0.15861214374225527 14.621979734996104  C 0.05287071458075178 14.4764873993245  0.006608839322594017 14.305533904910366  0.01982651796778191 14.109119251753704  C 0.033044196612969944 13.912704598597038  0.10574142916150356 13.756300337750064  0.2379182156133829 13.639906469212782  L 14.493184634448575 0.5674201091192526  C 14.91615035109459 0.18914003637308108  15.418422139611732 0  16 0  C 16.581577860388272 0  17.083849648905414 0.18914003637308108  17.506815365551425 0.5674201091192526  L 22.34448574969021 5.0194855806703025  L 22.34448574969021 0.7638347622759145  C 22.34448574969021 0.5601454923356686  22.403965303593555 0.392829306313327  22.522924411400247 0.26188620420888675  C 22.64188351920694 0.13094310210444338  22.7938868236266 0.06547155105222169  22.97893432465923 0.06547155105222169  L 26.78562577447336 0.06547155105222169  C 26.97067327550599 0.06547155105222169  27.12267657992565 0.13094310210444338  27.24163568773234 0.26188620420888675  C 27.360594795539033 0.392829306313327  27.42007434944238 0.5601454923356686  27.42007434944238 0.7638347622759145  L 27.42007434944238 9.66796570537802  L 31.762081784386616 13.639906469212782  C 31.8942585708385 13.756300337750064  31.966955803387034 13.912704598597038  31.980173482032217 14.109119251753704  Z " fill-rule="nonzero" fill="#797979" stroke="none" transform="matrix(1 0 0 1 153 76 )" />
  </g>
</svg>