<?xml version="1.0" encoding="utf-8"?>
<svg version="1.1" xmlns:xlink="http://www.w3.org/1999/xlink" width="34px" height="20px" xmlns="http://www.w3.org/2000/svg">
  <g transform="matrix(1 0 0 1 -563 -353 )">
    <path d="M 32.10267857142857 7.684659090909092  C 32.823660714285715 7.315340909090908  33.45610119047619 6.903409090909092  34 6.448863636363635  L 34 17.727272727272727  C 34 18.352272727272727  33.70275297619048 18.88731060606061  33.10825892857143 19.332386363636363  C 32.51376488095239 19.777462121212118  31.79910714285715 20  30.964285714285715 20  L 3.0357142857142856 20  C 2.200892857142857 20  1.4862351190476193 19.777462121212118  0.8917410714285716 19.332386363636363  C 0.29724702380952395 18.88731060606061  0 18.352272727272727  0 17.727272727272727  L 0 6.448863636363635  C 0.5565476190476192 6.912878787878787  1.1953125000000002 7.324810606060604  1.9162946428571428 7.684659090909092  C 6.495163690476192 10.014204545454547  9.638392857142858 11.647727272727273  11.345982142857142 12.585227272727273  C 12.066964285714286 12.982954545454547  12.651971726190478 13.29308712121212  13.101004464285714 13.515625  C 13.550037202380954 13.738162878787875  14.147693452380954 13.965435606060606  14.893973214285714 14.197443181818183  C 15.640252976190478 14.429450757575758  16.3359375 14.545454545454547  16.981026785714285 14.545454545454547  L 17 14.545454545454547  L 17.018973214285715 14.545454545454547  C 17.664062500000004 14.545454545454547  18.359747023809526 14.429450757575758  19.106026785714285 14.197443181818183  C 19.85230654761905 13.965435606060606  20.44996279761905 13.738162878787875  20.898995535714285 13.515625  C 21.348028273809526 13.29308712121212  21.933035714285715 12.982954545454547  22.654017857142858 12.585227272727273  C 24.804315476190478 11.420454545454547  27.95386904761905 9.786931818181818  32.10267857142857 7.684659090909092  Z M 33.09877232142857 0.6676136363636354  C 33.699590773809526 1.1126893939393923  34 1.647727272727273  34 2.272727272727273  C 34 3.0208333333333304  33.69010416666667 3.735795454545454  33.0703125 4.417613636363635  C 32.450520833333336 5.099431818181818  31.678943452380956 5.681818181818182  30.755580357142858 6.164772727272727  C 25.999627976190478 8.636363636363635  23.03980654761905 10.175189393939394  21.876116071428573 10.78125  C 21.749627976190478 10.847537878787879  21.480840773809526 10.991950757575758  21.069754464285715 11.214488636363637  C 20.65866815476191 11.437026515151514  20.31715029761905 11.616950757575758  20.045200892857142 11.754261363636363  C 19.773251488095237 11.891571969696969  19.444382440476193 12.045454545454547  19.05859375 12.215909090909092  C 18.67280505952381 12.386363636363637  18.309151785714285 12.514204545454547  17.967633928571427 12.599431818181817  C 17.626116071428573 12.684659090909092  17.309895833333336 12.727272727272727  17.018973214285715 12.727272727272727  L 17 12.727272727272727  L 16.981026785714285 12.727272727272727  C 16.690104166666668 12.727272727272727  16.37388392857143 12.684659090909092  16.03236607142857 12.599431818181817  C 15.690848214285714 12.514204545454547  15.327194940476192 12.386363636363637  14.94140625 12.215909090909092  C 14.55561755952381 12.045454545454547  14.226748511904763 11.891571969696969  13.954799107142858 11.754261363636363  C 13.682849702380954 11.616950757575758  13.341331845238097 11.437026515151514  12.930245535714286 11.214488636363637  C 12.519159226190478 10.991950757575758  12.250372023809526 10.847537878787879  12.123883928571429 10.78125  C 10.972842261904763 10.175189393939394  9.315848214285714 9.311079545454547  7.152901785714286 8.188920454545453  C 4.989955357142857 7.066761363636362  3.6934523809523814 6.3920454545454515  3.263392857142857 6.164772727272727  C 2.479166666666667 5.7670454545454515  1.73921130952381 5.220170454545454  1.0435267857142858 4.524147727272727  C 0.34784226190476203 3.828125  0 3.181818181818181  0 2.585227272727273  C 0 1.8465909090909083  0.2624627976190477 1.2310606060606033  0.787388392857143 0.7386363636363646  C 1.3123139880952384 0.24621212121211933  2.061755952380953 0  3.0357142857142856 0  L 30.964285714285715 0  C 31.786458333333336 0  32.49795386904762 0.22253787878787623  33.09877232142857 0.6676136363636354  Z " fill-rule="nonzero" fill="#63a103" stroke="none" transform="matrix(1 0 0 1 563 353 )" />
  </g>
</svg>