<?xml version="1.0" encoding="utf-8"?>
<svg version="1.1" xmlns:xlink="http://www.w3.org/1999/xlink" width="28px" height="29px" xmlns="http://www.w3.org/2000/svg">
  <g transform="matrix(1 0 0 1 -532 -489 )">
    <path d="M 7.777777777777779 9.227272727272728  L 7.777777777777779 13.181818181818183  L 20.22222222222222 13.181818181818183  L 20.22222222222222 9.227272727272728  C 20.22222222222222 7.771780303030302  19.614583333333336 6.529119318181817  18.399305555555557 5.499289772727272  C 17.18402777777778 4.469460227272728  15.717592592592595 3.954545454545454  14 3.954545454545454  C 12.282407407407408 3.954545454545454  10.815972222222221 4.469460227272728  9.600694444444443 5.499289772727272  C 8.385416666666668 6.529119318181817  7.777777777777779 7.771780303030302  7.777777777777779 9.227272727272728  Z M 27.319444444444443 13.758522727272728  C 27.773148148148152 14.142992424242424  28 14.60984848484848  28 15.159090909090908  L 28 27.022727272727273  C 28 27.5719696969697  27.773148148148152 28.038825757575758  27.319444444444443 28.423295454545453  C 26.865740740740748 28.807765151515152  26.314814814814817 29  25.666666666666664 29  L 2.333333333333333 29  C 1.6851851851851856 29  1.1342592592592595 28.807765151515152  0.6805555555555556 28.423295454545453  C 0.22685185185185183 28.038825757575758  0 27.5719696969697  0 27.022727272727273  L 0 15.159090909090908  C 0 14.60984848484848  0.22685185185185183 14.142992424242424  0.6805555555555556 13.758522727272728  C 1.1342592592592595 13.374053030303031  1.6851851851851856 13.181818181818183  2.333333333333333 13.181818181818183  L 3.1111111111111107 13.181818181818183  L 3.1111111111111107 9.227272727272728  C 3.1111111111111107 6.700757575757573  4.180555555555555 4.53125  6.319444444444445 2.71875  C 8.458333333333332 0.90625  11.018518518518519 0  14 0  C 16.98148148148148 0  19.541666666666664 0.90625  21.680555555555557 2.71875  C 23.819444444444443 4.53125  24.888888888888886 6.700757575757573  24.888888888888886 9.227272727272728  L 24.888888888888886 13.181818181818183  L 25.666666666666664 13.181818181818183  C 26.314814814814817 13.181818181818183  26.865740740740748 13.374053030303031  27.319444444444443 13.758522727272728  Z " fill-rule="nonzero" fill="#000000" stroke="none" transform="matrix(1 0 0 1 532 489 )" />
  </g>
</svg>