<?xml version="1.0" encoding="utf-8"?>
<svg version="1.1" xmlns:xlink="http://www.w3.org/1999/xlink" width="30px" height="34px" xmlns="http://www.w3.org/2000/svg">
  <g transform="matrix(1 0 0 1 -528 -342 )">
    <path d="M 25 9.714285714285714  C 25 11.573660714285714  24.485677083333336 13.293898809523807  23.45703125 14.875  C 24.06901041666667 15.05208333333333  24.651692708333332 15.292410714285714  25.205078125 15.59598214285714  C 25.758463541666668 15.899553571428573  26.337890625 16.361235119047617  26.943359375 16.981026785714285  C 27.548828125 17.600818452380953  28.06640625 18.331287202380953  28.49609375 19.172433035714285  C 28.92578125 20.013578869047617  29.28385416666667 21.101376488095234  29.5703125 22.435825892857146  C 29.85677083333333 23.770275297619047  30 25.265997023809526  30 26.922991071428573  C 30 28.87090773809524  29.348958333333332 30.537388392857142  28.046875 31.922433035714285  C 26.74479166666667 33.30747767857143  25.17578125 34  23.33984375 34  L 6.66015625 34  C 4.82421875 34  3.255208333333334 33.30747767857143  1.9531250000000002 31.922433035714285  C 0.6510416666666665 30.537388392857142  0 28.87090773809524  0 26.922991071428573  C 0 25.265997023809526  0.14322916666666666 23.770275297619047  0.4296875 22.435825892857146  C 0.7161458333333334 21.101376488095234  1.07421875 20.013578869047617  1.50390625 19.172433035714285  C 1.93359375 18.331287202380953  2.451171875 17.600818452380953  3.056640625 16.981026785714285  C 3.662109375 16.361235119047617  4.241536458333334 15.899553571428573  4.794921875 15.59598214285714  C 5.348307291666667 15.292410714285714  5.930989583333334 15.05208333333333  6.54296875 14.875  C 5.514322916666668 13.293898809523807  5 11.573660714285714  5 9.714285714285714  C 5 8.39880952380952  5.263671875 7.143415178571427  5.791015625 5.948102678571427  C 6.318359375 4.752790178571427  7.03125 3.71875  7.929687500000001 2.8459821428571415  C 8.828125 1.9732142857142863  9.892578125 1.2806919642857137  11.123046875 0.7684151785714275  C 12.353515625 0.25613839285714124  13.645833333333336 0  15 0  C 16.354166666666668 0  17.646484375 0.25613839285714124  18.876953125 0.7684151785714275  C 20.107421875 1.2806919642857137  21.171875 1.9732142857142863  22.0703125 2.8459821428571415  C 22.96875 3.71875  23.681640625 4.752790178571427  24.208984375 5.948102678571427  C 24.736328125 7.143415178571427  25 8.39880952380952  25 9.714285714285714  Z M 20.302734375 4.5630580357142865  C 18.837890625000004 3.1400669642857135  17.070312500000004 2.4285714285714275  15 2.4285714285714275  C 12.9296875 2.4285714285714275  11.162109375 3.1400669642857135  9.697265625 4.5630580357142865  C 8.232421875 5.9860491071428585  7.5 7.703125  7.5 9.714285714285714  C 7.5 11.725446428571427  8.232421875 13.442522321428573  9.697265625 14.86551339285714  C 11.162109375 16.288504464285715  12.9296875 17  15 17  C 17.070312500000004 17  18.837890625000004 16.288504464285715  20.302734375 14.86551339285714  C 21.767578125 13.442522321428573  22.5 11.725446428571427  22.5 9.714285714285714  C 22.5 7.703125  21.767578125 5.9860491071428585  20.302734375 4.5630580357142865  Z M 6.66015625 31  L 23.33984375 31  C 24.485677083333336 31.571428571428573  25.465494791666668 31.119233630952383  26.279296875 30.21484375  C 27.093098958333336 29.310453869047617  27.5 28.213169642857146  27.5 26.922991071428573  C 27.5 23.89992559523809  26.988932291666668 21.515625  25.966796875 19.770089285714285  C 24.944661458333332 18.024553571428573  23.4765625 17.10751488095238  21.5625 17.018973214285715  C 19.674479166666668 18.625372023809526  17.486979166666668 19.428571428571427  15 19.428571428571427  C 12.513020833333334 19.428571428571427  10.325520833333336 18.625372023809526  8.4375 17.018973214285715  C 6.5234375 17.10751488095238  5.055338541666667 18.024553571428573  4.033203125 19.770089285714285  C 3.0110677083333335 21.515625  2.5 23.89992559523809  2.5 26.922991071428573  C 2.5 28.213169642857146  2.906901041666667 29.310453869047617  3.720703125 30.21484375  C 4.534505208333334 31.119233630952383  5.514322916666668 31.571428571428573  6.66015625 31  Z " fill-rule="nonzero" fill="#000000" stroke="none" transform="matrix(1 0 0 1 528 342 )" />
  </g>
</svg>