<?xml version="1.0" encoding="utf-8"?>
<svg version="1.1" xmlns:xlink="http://www.w3.org/1999/xlink" width="29px" height="29px" xmlns="http://www.w3.org/2000/svg">
  <g transform="matrix(1 0 0 1 -565 -424 )">
    <path d="M 8.055555555555555 9.227272727272728  L 8.055555555555555 13.181818181818183  L 20.944444444444443 13.181818181818183  L 20.944444444444443 9.227272727272728  C 20.944444444444443 7.771780303030302  20.315104166666668 6.529119318181817  19.05642361111111 5.499289772727272  C 17.797743055555557 4.469460227272728  16.278935185185187 3.954545454545454  14.5 3.954545454545454  C 12.721064814814817 3.954545454545454  11.202256944444445 4.469460227272728  9.943576388888888 5.499289772727272  C 8.684895833333334 6.529119318181817  8.055555555555555 7.771780303030302  8.055555555555555 9.227272727272728  Z M 28.29513888888889 13.758522727272728  C 28.765046296296298 14.142992424242424  29 14.60984848484848  29 15.159090909090908  L 29 27.022727272727273  C 29 27.5719696969697  28.765046296296298 28.038825757575758  28.29513888888889 28.423295454545453  C 27.825231481481488 28.807765151515152  27.254629629629633 29  26.583333333333332 29  L 2.4166666666666665 29  C 1.7453703703703707 29  1.1747685185185186 28.807765151515152  0.7048611111111112 28.423295454545453  C 0.2349537037037037 28.038825757575758  0 27.5719696969697  0 27.022727272727273  L 0 15.159090909090908  C 0 14.60984848484848  0.2349537037037037 14.142992424242424  0.7048611111111112 13.758522727272728  C 1.1747685185185186 13.374053030303031  1.7453703703703707 13.181818181818183  2.4166666666666665 13.181818181818183  L 3.222222222222222 13.181818181818183  L 3.222222222222222 9.227272727272728  C 3.222222222222222 6.700757575757573  4.329861111111111 4.53125  6.545138888888889 2.71875  C 8.760416666666666 0.90625  11.412037037037038 0  14.5 0  C 17.587962962962965 0  20.239583333333332 0.90625  22.45486111111111 2.71875  C 24.67013888888889 4.53125  25.777777777777775 6.700757575757573  25.777777777777775 9.227272727272728  L 25.777777777777775 13.181818181818183  L 26.583333333333332 13.181818181818183  C 27.254629629629633 13.181818181818183  27.825231481481488 13.374053030303031  28.29513888888889 13.758522727272728  Z " fill-rule="nonzero" fill="#000000" stroke="none" transform="matrix(1 0 0 1 565 424 )" />
  </g>
</svg>