<?xml version="1.0" encoding="utf-8"?>
<svg version="1.1" xmlns:xlink="http://www.w3.org/1999/xlink" width="87px" height="73px" xmlns="http://www.w3.org/2000/svg">
  <g transform="matrix(1 0 0 1 -2458 -14 )">
    <path d="M 26.604910714285715 2.892299107142856  C 31.977678571428573 0.964099702380952  37.609375 0  43.5 0  C 49.390625 0  55.02232142857144 0.964099702380952  60.39508928571429 2.892299107142856  C 65.76785714285715 4.82049851190476  70.39620535714286 7.4140625  74.28013392857143 10.672991071428568  C 78.16406250000001 13.931919642857144  81.25502232142858 17.815476190476183  83.55301339285714 22.32366071428571  C 85.85100446428572 26.831845238095234  87 31.557291666666664  87 36.5  C 87 41.415550595238095  85.85909598214286 46.127418154761905  83.57728794642857 50.63560267857142  C 81.29547991071429 55.14378720238096  78.21261160714286 59.02734375  74.32868303571429 62.28627232142858  C 70.44475446428571 65.54520089285714  65.81640625 68.14555431547619  60.443638392857146 70.08733258928571  C 55.07087053571429 72.02911086309524  49.42299107142857 73  43.5 73  C 37.57700892857143 73  31.92912946428572 72.03590029761905  26.556361607142854 70.10770089285714  C 21.18359375 68.17950148809524  16.56333705357143 65.57914806547619  12.695591517857142 62.306640625  C 8.827845982142856 59.03413318452381  5.744977678571429 55.15057663690476  3.4469866071428568 50.655970982142854  C 1.1489955357142856 46.16136532738094  0 41.44270833333333  0 36.5  C 0 31.557291666666664  1.1489955357142856 26.831845238095234  3.4469866071428568 22.32366071428571  C 5.744977678571429 17.815476190476183  8.8359375 13.931919642857144  12.719866071428573 10.672991071428568  C 16.603794642857142 7.4140625  21.232142857142858 4.82049851190476  26.604910714285715 2.892299107142856  Z M 58.69587053571429 41.714285714285715  C 66.46372767857143 41.714285714285715  71.41573660714286 46.154575892857146  73.55189732142857 55.03515625  C 78.37444196428572 49.46781994047619  80.78571428571429 43.28943452380952  80.78571428571429 36.5  C 80.78571428571429 32.263392857142854  79.79854910714286 28.216889880952376  77.82421875 24.36049107142857  C 75.84988839285715 20.50409226190476  73.1958705357143 17.177269345238088  69.86216517857143 14.380022321428568  C 66.52845982142858 11.582775297619047  62.56361607142858 9.35584077380952  57.96763392857143 7.69921875  C 53.37165178571429 6.042596726190472  48.549107142857146 5.214285714285712  43.5 5.214285714285712  C 38.450892857142854 5.214285714285712  33.628348214285715 6.042596726190472  29.032366071428573 7.69921875  C 24.43638392857143 9.35584077380952  20.47154017857143 11.582775297619047  17.137834821428573 14.380022321428568  C 13.804129464285717 17.177269345238088  11.150111607142858 20.50409226190476  9.17578125 24.36049107142857  C 7.201450892857144 28.216889880952376  6.2142857142857135 32.263392857142854  6.2142857142857135 36.5  C 6.2142857142857135 43.28943452380952  8.625558035714286 49.46781994047619  13.448102678571427 55.03515625  C 15.584263392857142 46.154575892857146  20.536272321428573 41.714285714285715  28.304129464285715 41.714285714285715  C 32.54408482142858 45.19047619047619  37.609375 46.92857142857142  43.5 46.92857142857142  C 49.390625 46.92857142857142  54.45591517857143 45.19047619047619  58.69587053571429 41.714285714285715  Z M 56.68108258928571 39.738560267857146  C 60.322265625 36.683314732142854  62.142857142857146 32.996651785714285  62.142857142857146 28.67857142857143  C 62.142857142857146 24.36049107142857  60.322265625 20.673828125  56.68108258928571 17.61858258928571  C 53.03989955357143 14.563337053571432  48.646205357142854 13.035714285714288  43.5 13.035714285714288  C 38.353794642857146 13.035714285714288  33.96010044642857 14.563337053571432  30.318917410714285 17.61858258928571  C 26.677734375 20.673828125  24.857142857142854 24.36049107142857  24.857142857142854 28.67857142857143  C 24.857142857142854 32.996651785714285  26.677734375 36.683314732142854  30.318917410714285 39.738560267857146  C 33.96010044642857 42.79380580357142  38.353794642857146 44.32142857142858  43.5 44.32142857142858  C 48.646205357142854 44.32142857142858  53.03989955357143 42.79380580357142  56.68108258928571 39.738560267857146  Z " fill-rule="nonzero" fill="#555555" stroke="none" transform="matrix(1 0 0 1 2458 14 )" />
  </g>
</svg>