<?xml version="1.0" encoding="utf-8"?>
<svg version="1.1" xmlns:xlink="http://www.w3.org/1999/xlink" width="87px" height="73px" xmlns="http://www.w3.org/2000/svg">
  <g transform="matrix(1 0 0 1 -12 -14 )">
    <path d="M 74.49442379182156 41.70615744349181  C 74.53035935563817 41.78202130423487  74.54832713754647 41.89581709534944  74 42.04754481683554  L 74 69.35853468433359  C 74.54832713754647 70.34476487399324  74.20693928128873 71.19823330735255  73.52416356877323 71.91893998441154  C 72.84138785625775 72.63964666147052  72.03283767038415 73  71.0985130111524 73  L 50 73  L 50 51  L 37 51  L 37 73  L 15.901486988847584 73  C 14.967162329615864 73  14.158612143742257 72.63964666147052  13.475836431226766 71.91893998441154  C 12.793060718711278 71.19823330735255  12.451672862453531 70.34476487399324  13 69.35853468433359  L 13 42.04754481683554  C 12.451672862453531 42.00961288646401  12.460656753407683 41.95271499090673  12.478624535315985 41.87685113016368  C 12.49659231722429 41.80098726942063  12.50557620817844 41.744089373863346  12.50557620817844 41.70615744349181  L 43.5 14.736554949337489  L 74.49442379182156 41.70615744349181  Z M 86.9460966542751 36.784489477786444  C 86.9820322180917 37.296570537802026  86.85625774473358 37.742270719667445  86.56877323420073 38.1215900233827  L 83.22676579925651 42.332034294621984  C 82.93928128872368 42.67342166796571  82.56195786864933 42.882047285009094  82.09479553903346 42.95791114575214  L 81.93308550185873 42.95791114575214  C 81.46592317224288 42.95791114575214  81.08859975216853 42.8251493894518  80.80111524163569 42.55962587685112  L 43.5 9.729540140296182  L 6.198884758364312 42.55962587685112  C 5.767657992565056 42.86308131982332  5.336431226765799 42.99584307612366  4.905204460966543 42.95791114575214  C 4.438042131350682 42.882047285009094  4.0607187112763325 42.67342166796571  3.7732342007434942 42.332034294621984  L 0.4312267657992565 38.1215900233827  C 0.1437422552664189 37.742270719667445  0.017967781908302484 37.296570537802026  0.05390334572490706 36.784489477786444  C 0.08983890954151204 36.27240841777085  0.2874845105328378 35.86464016627695  0.6468401486988847 35.561184723304756  L 39.40334572490706 1.4793452844894799  C 40.553283767038415 0.4931150948298185  41.918835192069395 0  43.5 0  C 45.08116480793061 0  46.44671623296159 0.4931150948298185  47.59665427509294 1.4793452844894799  L 60 13.086515978176145  L 60 1.9914263445050628  C 60.74907063197026 1.4603793193037073  60.91078066914498 1.024162120031174  61.23420074349442 0.6827747466874547  C 61.55762081784386 0.3413873733437274  61.97087980173482 0.1706936866718637  62.473977695167285 1  L 72.82342007434944 1  C 73.32651796778191 0.1706936866718637  73.73977695167285 0.3413873733437274  74.06319702602231 0.6827747466874547  C 74.38661710037175 1.024162120031174  74.54832713754647 1.4603793193037073  74 1.9914263445050628  L 74 25.20576773187841  L 86.35315985130111 35.561184723304756  C 86.71251548946717 35.86464016627695  86.9101610904585 36.27240841777085  86.9460966542751 36.784489477786444  Z " fill-rule="nonzero" fill="#555555" stroke="none" transform="matrix(1 0 0 1 12 14 )" />
  </g>
</svg>